<svg viewBox="0 0 325.148 75.83" xmlns="http://www.w3.org/2000/svg" xmlns:xlink="http://www.w3.org/1999/xlink" id="Ebene_1" overflow="hidden"><path d="M57.584 58.631C55.906 59.499 52.203 60.366 47.516 60.366 35.134 60.366 27.612 52.613 27.612 40.752 27.612 27.906 36.523 20.153 48.442 20.153 51.694 20.036 54.932 20.628 57.931 21.888L56.369 27.559C53.955 26.534 51.354 26.021 48.731 26.054 40.804 26.054 35.076 31.031 35.076 40.404 35.076 48.967 40.11 54.465 48.674 54.465 51.329 54.504 53.965 54.012 56.427 53.019L57.584 58.631Z" stroke-width="0" fill="#FFFFFF"/><path d="M70.775 20.79 70.775 36.412 87.265 36.412 87.265 20.79 94.382 20.79 94.382 59.788 87.265 59.788 87.265 42.603 70.775 42.603 70.775 59.788 63.658 59.788 63.658 20.79 70.775 20.79Z" stroke-width="0" fill="#FFFFFF"/><path d="M124.353 42.487 109.656 42.487 109.656 53.944 126.088 53.944 126.088 59.788 102.539 59.788 102.539 20.79 125.221 20.79 125.221 26.634 109.656 26.634 109.656 36.701 124.353 36.701 124.353 42.487Z" stroke-width="0" fill="#FFFFFF"/><path d="M160.284 58.631C158.606 59.499 154.903 60.366 150.217 60.366 137.835 60.366 130.313 52.613 130.313 40.752 130.313 27.906 139.224 20.153 151.143 20.153 154.395 20.036 157.633 20.628 160.632 21.888L159.07 27.559C156.656 26.534 154.055 26.021 151.432 26.054 143.505 26.054 137.777 31.031 137.777 40.404 137.777 48.967 142.811 54.465 151.375 54.465 154.03 54.504 156.666 54.012 159.129 53.019L160.285 58.631 160.284 58.631Z" stroke-width="0" fill="#FFFFFF"/><path d="M166.359 20.79 173.418 20.79 173.418 38.727 173.592 38.727C174.518 37.222 175.501 35.833 176.427 34.503L186.611 20.79 195.406 20.79 181.982 37.395 196.274 59.788 187.942 59.788 176.89 41.909 173.418 46.075 173.418 59.788 166.359 59.788 166.359 20.79 166.359 20.79Z" stroke-width="0" fill="#FFFFFF"/><path d="M199.981 55.685C199.877 54.112 201.069 52.753 202.641 52.65 202.72 52.645 202.798 52.643 202.877 52.644 204.558 52.561 205.987 53.856 206.07 55.537 206.153 57.218 204.858 58.647 203.177 58.73 201.496 58.813 200.067 57.518 199.984 55.837 199.982 55.786 199.98 55.736 199.98 55.685L199.981 55.685Z" stroke-width="0" fill="#FFBB1C"/><path d="M227.645 57.327C225.535 58.267 223.243 58.729 220.934 58.679 213.885 58.679 209.299 53.9 209.299 46.754 209.299 39.561 214.223 34.347 221.851 34.347 223.878 34.325 225.887 34.736 227.742 35.554L226.776 38.837C225.259 38.045 223.561 37.662 221.851 37.726 216.493 37.726 213.596 41.685 213.596 46.562 213.596 51.969 217.072 55.3 221.706 55.3 223.509 55.308 225.29 54.912 226.92 54.141L227.645 57.328 227.645 57.328Z" stroke-width="0" fill="#FFFFFF"/><path d="M253.478 46.319C253.478 54.962 247.491 58.727 241.842 58.727 235.518 58.727 230.642 54.092 230.642 46.706 230.642 38.885 235.759 34.298 242.229 34.298 248.939 34.298 253.478 39.175 253.478 46.319ZM234.939 46.561C234.939 51.678 237.883 55.54 242.036 55.54 246.092 55.54 249.133 51.726 249.133 46.464 249.133 42.505 247.153 37.484 242.133 37.484 237.113 37.484 234.94 42.119 234.94 46.561L234.939 46.561Z" stroke-width="0" fill="#FFFFFF"/><path d="M258.839 41.154C258.839 38.74 258.791 36.76 258.646 34.829L262.412 34.829 262.653 38.691 262.75 38.691C264.309 35.905 267.284 34.214 270.475 34.297 273.71 34.297 278.731 36.229 278.731 44.243L278.731 58.195 274.483 58.195 274.483 44.725C274.483 40.959 273.083 37.821 269.076 37.821 266.43 37.864 264.12 39.626 263.379 42.167 263.174 42.806 263.076 43.475 263.089 44.146L263.089 58.195 258.841 58.195 258.841 41.153 258.839 41.153Z" stroke-width="0" fill="#FFFFFF"/><path d="M286.072 58.196 286.072 38.064 282.789 38.064 282.789 34.829 286.072 34.829 286.072 33.719C286.072 30.436 286.796 27.443 288.775 25.56 290.32 24.124 292.363 23.346 294.472 23.388 295.711 23.384 296.939 23.613 298.093 24.064L297.514 27.346C296.662 26.974 295.739 26.793 294.81 26.816 291.189 26.816 290.272 30.002 290.272 33.575L290.272 34.83 295.92 34.83 295.92 38.065 290.272 38.065 290.272 58.197 286.072 58.197 286.072 58.197Z" stroke-width="0" fill="#FFFFFF"/><path d="M10.331 36.094C15.302 36.024 16.002 33.364 16.002 30.843 15.951 28.895 15.764 26.954 15.441 25.032 15.12 23.111 14.933 21.169 14.881 19.221 14.881 12.781 19.081 9.981 25.032 9.981L26.502 9.981 26.502 13.831 25.242 13.831C21.111 13.831 19.711 16.071 19.711 19.922 19.739 21.589 19.903 23.252 20.201 24.893 20.513 26.65 20.677 28.429 20.691 30.213 20.761 34.693 18.8 36.934 15.651 37.704L15.651 37.844C18.8 38.684 20.761 41.065 20.691 45.545 20.67 47.329 20.506 49.108 20.201 50.865 19.902 52.506 19.739 54.168 19.711 55.836 19.711 59.826 21.321 61.996 25.242 61.996L26.502 61.996 26.502 65.847 25.032 65.847C19.221 65.847 14.881 63.257 14.881 56.256 14.929 54.332 15.116 52.413 15.441 50.516 15.763 48.642 15.95 46.746 16.002 44.845 16.002 42.605 15.302 39.594 10.331 39.594 10.331 39.594 10.331 36.094 10.331 36.094Z" stroke-width="0" fill="#FFBB1C"/><path d="M314.817 39.594C309.846 39.594 309.146 42.605 309.146 44.845 309.197 46.746 309.385 48.641 309.707 50.516 310.032 52.413 310.219 54.332 310.267 56.256 310.267 63.257 305.857 65.847 300.117 65.847L298.646 65.847 298.646 61.996 299.836 61.996C303.756 61.856 305.437 59.826 305.437 55.836 305.374 54.171 305.211 52.511 304.947 50.865 304.619 49.109 304.431 47.33 304.387 45.545 304.387 41.065 306.347 38.684 309.427 37.844L309.427 37.704C306.347 36.933 304.387 34.693 304.387 30.213 304.424 28.427 304.611 26.647 304.947 24.893 305.211 23.248 305.375 21.588 305.437 19.922 305.437 16.071 303.966 13.972 299.907 13.831L298.646 13.831 298.646 9.981 300.046 9.981C305.996 9.981 310.267 12.781 310.267 19.221 310.216 21.169 310.029 23.11 309.707 25.032 309.385 26.953 309.198 28.895 309.146 30.843 309.146 33.364 309.846 36.024 314.817 36.094L314.817 39.594 314.817 39.594Z" stroke-width="0" fill="#FFBB1C"/></svg>