<svg viewBox="0 0 793.701 311.811" xmlns="http://www.w3.org/2000/svg" xmlns:xlink="http://www.w3.org/1999/xlink" id="Ebene_1" overflow="hidden"><path d="M230.345 198.758 230.345 198.758 222.067 198.758 222.067 198.758 230.345 198.758 230.345 190.338 230.345 181.917 230.345 173.496 221.924 173.496 221.924 173.496 213.646 173.496 213.646 173.496 221.924 173.496 221.924 165.076 213.646 165.076 213.503 165.076 213.503 156.655 205.082 156.655 196.661 156.655 196.661 156.655 188.384 156.655 188.384 156.655 196.661 156.655 196.661 148.231 188.241 148.231 188.241 148.231 179.963 148.231 171.543 148.231 163.122 148.231 154.701 148.231 146.277 148.231 137.857 148.231 129.436 148.231 129.436 156.655 121.015 156.655 112.595 156.655 112.595 165.076 104.174 165.076 104.174 173.496 95.753 173.496 95.753 181.917 95.753 190.338 87.333 190.338 87.333 198.758 87.333 207.179 87.333 215.6 87.333 224.02 87.333 232.441 87.333 240.865 87.333 249.286 95.753 249.286 95.753 257.707 104.174 257.707 104.174 266.127 104.174 274.548 112.595 274.548 112.595 282.969 121.015 282.969 121.015 290.87 121.015 290.87 121.015 299.29 129.293 299.29 129.436 299.29 137.713 299.29 146.134 299.29 154.555 299.29 162.979 299.29 171.399 299.29 179.82 299.29 188.241 299.29 196.661 299.29 196.661 291.389 196.805 291.389 205.082 291.389 205.082 282.969 205.226 282.969 205.226 282.969 213.503 282.969 213.503 274.548 205.226 274.548 205.226 274.548 213.503 274.548 213.503 274.548 221.924 274.548 221.924 266.127 221.924 257.707 222.067 257.707 222.067 257.707 230.345 257.707 230.345 249.286 222.067 249.286 222.067 249.286 230.345 249.286 230.345 249.286 238.768 249.286 238.768 240.865 238.768 232.441 238.768 224.02 238.768 215.6 238.768 207.179 238.768 198.758 230.345 198.758Z" stroke-width="0" fill="#FFFFFF"/><path d="M389.574 260.932 389.574 241.816 408.69 241.816 408.69 153.56 339.552 153.56 339.552 167.015 333.199 167.015 333.199 230.027 332.224 230.027 332.224 153.56 263.085 153.56 263.085 241.816 282.202 241.816 282.202 243.482 275.85 243.482 275.85 262.599 294.966 262.599 294.966 260.932 389.574 260.932Z" stroke-width="0" fill="#063773"/><path d="M485.157 260.932 485.157 241.815 542.507 241.815 542.507 222.698 561.624 222.698 561.624 186.131 562.6 186.131 562.6 167.014 543.483 167.014 543.483 172.675 542.507 172.675 542.507 153.558 416.018 153.558 416.018 167.013 409.666 167.013 409.666 243.48 390.549 243.48 390.549 262.597 294.966 262.597 294.966 281.714 409.666 281.714 409.666 262.597 428.783 262.597 428.783 260.931 485.157 260.931ZM486.133 186.132 486.133 210.91 485.157 210.91 485.157 184.466 492.485 184.466 492.485 186.132 486.133 186.132Z" stroke-width="0" fill="#063773"/><path d="M562.599 186.132 562.599 224.365 543.483 224.365 543.483 243.482 486.133 243.482 486.133 262.599 428.783 262.599 428.783 281.715 505.249 281.715 505.249 262.599 562.599 262.599 562.599 243.482 581.716 243.482 581.716 186.132 562.599 186.132Z" stroke-width="0" fill="#063773"/><path d="M706.153 199.864 694.108 199.864 694.108 187.819 682.063 187.819 682.063 175.774 670.018 175.774 670.018 163.726 657.944 163.726 657.944 151.681 645.605 151.681 645.605 163.726 633.56 163.726 633.56 175.774 621.501 175.774 621.501 187.819 609.456 187.819 609.456 199.864 597.411 199.864 597.411 212.202 621.501 212.202 621.501 236.002 621.501 236.292 621.501 260.092 621.501 260.385 621.501 272.14 621.501 272.43 621.501 284.475 633.56 284.475 633.56 284.478 657.676 284.478 657.944 284.478 669.871 284.478 682.063 284.475 682.063 272.43 682.063 272.14 682.063 260.385 682.063 260.092 682.063 236.292 682.063 236.002 682.063 212.202 706.153 212.202 706.153 199.864Z" stroke-width="0" fill="#063773"/><rect x="222.282" y="240.63" width="8.424" height="8.421" stroke-width="0" fill="#063773"/><rect x="222.282" y="232.206" width="8.424" height="8.424" stroke-width="0" fill="#063773"/><rect x="222.282" y="223.785" width="8.424" height="8.421" stroke-width="0" fill="#063773"/><rect x="222.282" y="215.364" width="8.424" height="8.421" stroke-width="0" fill="#063773"/><rect x="222.282" y="206.944" width="8.424" height="8.421" stroke-width="0" fill="#063773"/><rect x="222.282" y="198.523" width="8.424" height="8.421" stroke-width="0" fill="#063773"/><rect x="213.862" y="249.05" width="8.421" height="8.421" stroke-width="0" fill="#063773"/><rect x="213.862" y="223.785" width="8.421" height="8.421" stroke-width="0" fill="#FFFFFF"/><rect x="213.862" y="215.364" width="8.421" height="8.421" stroke-width="0" fill="#FFFFFF"/><rect x="213.862" y="206.944" width="8.421" height="8.421" stroke-width="0" fill="#FFFFFF"/><rect x="213.862" y="198.523" width="8.421" height="8.421" stroke-width="0" fill="#FFFFFF"/><rect x="213.862" y="190.102" width="8.421" height="8.421" stroke-width="0" fill="#063773"/><rect x="213.862" y="181.681" width="8.421" height="8.421" stroke-width="0" fill="#063773"/><rect x="213.862" y="173.261" width="8.421" height="8.421" stroke-width="0" fill="#063773"/><rect x="205.441" y="265.892" width="8.421" height="8.421" stroke-width="0" fill="#063773"/><rect x="205.441" y="257.471" width="8.421" height="8.421" stroke-width="0" fill="#063773"/><rect x="205.441" y="249.05" width="8.421" height="8.421" stroke-width="0" fill="#063773"/><rect x="205.441" y="223.785" width="8.421" height="8.421" stroke-width="0" fill="#FFFFFF"/><rect x="205.441" y="215.364" width="8.421" height="8.421" stroke-width="0" fill="#FFFFFF"/><rect x="205.441" y="206.944" width="8.421" height="8.421" stroke-width="0" fill="#FFFFFF"/><rect x="205.441" y="198.523" width="8.421" height="8.421" stroke-width="0" fill="#FFFFFF"/><rect x="205.441" y="190.102" width="8.421" height="8.421" stroke-width="0" fill="#FFFFFF"/><rect x="205.441" y="164.84" width="8.421" height="8.421" stroke-width="0" fill="#063773"/><rect x="197.02" y="274.312" width="8.421" height="8.421" stroke-width="0" fill="#063773"/><rect x="197.02" y="265.892" width="8.421" height="8.421" stroke-width="0" fill="#F4C59F"/><rect x="197.02" y="257.471" width="8.421" height="8.421" stroke-width="0" fill="#F4C59F"/><rect x="197.02" y="249.05" width="8.421" height="8.421" stroke-width="0" fill="#063773"/><rect x="197.02" y="215.364" width="8.421" height="8.421" stroke-width="0" fill="#FFFFFF"/><rect x="197.02" y="206.944" width="8.421" height="8.421" stroke-width="0" fill="#FFFFFF"/><rect x="197.02" y="198.523" width="8.421" height="8.421" stroke-width="0" fill="#FFFFFF"/><rect x="197.02" y="190.102" width="8.421" height="8.421" stroke-width="0" fill="#FFFFFF"/><rect x="197.02" y="164.84" width="8.421" height="8.421" stroke-width="0" fill="#FFFFFF"/><rect x="197.02" y="156.419" width="8.421" height="8.421" stroke-width="0" fill="#063773"/><rect x="188.6" y="282.733" width="8.421" height="8.421" stroke-width="0" fill="#063773"/><rect x="188.6" y="274.312" width="8.421" height="8.421" stroke-width="0" fill="#F4C59F"/><rect x="188.6" y="265.892" width="8.421" height="8.421" stroke-width="0" fill="#FFEAD7"/><rect x="188.6" y="257.471" width="8.421" height="8.421" stroke-width="0" fill="#FFEAD7"/><rect x="188.6" y="249.05" width="8.421" height="8.421" stroke-width="0" fill="#F4C59F"/><rect x="188.6" y="240.63" width="8.421" height="8.421" stroke-width="0" fill="#063773"/><rect x="188.6" y="164.84" width="8.421" height="8.421" stroke-width="0" fill="#FFFFFF"/><rect x="188.6" y="156.419" width="8.421" height="8.421" stroke-width="0" fill="#063773"/><rect x="180.179" y="282.733" width="8.421" height="8.421" stroke-width="0" fill="#063773"/><rect x="180.179" y="274.312" width="8.421" height="8.421" stroke-width="0" fill="#FFEAD7"/><rect x="180.179" y="265.892" width="8.421" height="8.421" stroke-width="0" fill="#FFEAD7"/><rect x="180.179" y="257.471" width="8.421" height="8.421" stroke-width="0" fill="#FFEAD7"/><rect x="180.179" y="249.05" width="8.421" height="8.421" stroke-width="0" fill="#F4C59F"/><rect x="180.179" y="240.63" width="8.421" height="8.421" stroke-width="0" fill="#063773"/><rect x="180.179" y="215.364" width="8.421" height="8.421" stroke-width="0" fill="#FFFFFF"/><rect x="180.179" y="206.944" width="8.421" height="8.421" stroke-width="0" fill="#FFFFFF"/><rect x="180.179" y="164.84" width="8.421" height="8.421" stroke-width="0" fill="#FFFFFF"/><rect x="180.179" y="156.419" width="8.421" height="8.421" stroke-width="0" fill="#FFFFFF"/><rect x="180.179" y="147.995" width="8.421" height="8.424" stroke-width="0" fill="#063773"/><rect x="171.758" y="282.733" width="8.421" height="8.421" stroke-width="0" fill="#063773"/><rect x="171.758" y="274.312" width="8.421" height="8.421" stroke-width="0" fill="#FFEAD7"/><rect x="171.758" y="265.892" width="8.421" height="8.421" stroke-width="0" fill="#FFEAD7"/><rect x="171.758" y="257.471" width="8.421" height="8.421" stroke-width="0" fill="#063773"/><rect x="171.758" y="249.05" width="8.421" height="8.421" stroke-width="0" fill="#063773"/><rect x="171.758" y="240.63" width="8.421" height="8.421" stroke-width="0" fill="#063773"/><rect x="171.758" y="223.785" width="8.421" height="8.421" stroke-width="0" fill="#FFFFFF"/><rect x="171.758" y="215.364" width="8.421" height="8.421" stroke-width="0" fill="#FFFFFF"/><rect x="171.758" y="206.944" width="8.421" height="8.421" stroke-width="0" fill="#FFFFFF"/><rect x="171.758" y="198.523" width="8.421" height="8.421" stroke-width="0" fill="#FFFFFF"/><rect x="171.758" y="156.419" width="8.421" height="8.421" stroke-width="0" fill="#FFFFFF"/><rect x="171.758" y="147.995" width="8.421" height="8.424" stroke-width="0" fill="#063773"/><rect x="163.338" y="282.733" width="8.421" height="8.421" stroke-width="0" fill="#063773"/><rect x="163.338" y="274.312" width="8.421" height="8.421" stroke-width="0" fill="#FFEAD7"/><rect x="163.338" y="265.892" width="8.421" height="8.421" stroke-width="0" fill="#FFEAD7"/><rect x="163.338" y="257.471" width="8.421" height="8.421" stroke-width="0" fill="#FFEAD7"/><rect x="163.338" y="249.05" width="8.421" height="8.421" stroke-width="0" fill="#F4C59F"/><rect x="163.338" y="240.63" width="8.421" height="8.421" stroke-width="0" fill="#063773"/><rect x="163.338" y="232.206" width="8.421" height="8.424" stroke-width="0" fill="#FFFFFF"/><rect x="163.338" y="223.785" width="8.421" height="8.421" stroke-width="0" fill="#FFFFFF"/><rect x="163.338" y="215.364" width="8.421" height="8.421" stroke-width="0" fill="#FFFFFF"/><rect x="163.338" y="206.944" width="8.421" height="8.421" stroke-width="0" fill="#FFFFFF"/><rect x="163.338" y="198.523" width="8.421" height="8.421" stroke-width="0" fill="#FFFFFF"/><rect x="163.338" y="190.102" width="8.421" height="8.421" stroke-width="0" fill="#FFFFFF"/><rect x="163.338" y="147.995" width="8.421" height="8.424" stroke-width="0" fill="#063773"/><rect x="154.917" y="282.733" width="8.421" height="8.421" stroke-width="0" fill="#063773"/><rect x="154.917" y="274.312" width="8.421" height="8.421" stroke-width="0" fill="#FFEAD7"/><rect x="154.917" y="265.892" width="8.421" height="8.421" stroke-width="0" fill="#FFEAD7"/><rect x="154.917" y="257.471" width="8.421" height="8.421" stroke-width="0" fill="#FFEAD7"/><rect x="154.917" y="249.05" width="8.421" height="8.421" stroke-width="0" fill="#F4C59F"/><rect x="154.917" y="240.63" width="8.421" height="8.421" stroke-width="0" fill="#063773"/><rect x="154.917" y="232.206" width="8.421" height="8.424" stroke-width="0" fill="#FFFFFF"/><rect x="154.917" y="223.785" width="8.421" height="8.421" stroke-width="0" fill="#FFFFFF"/><rect x="154.917" y="215.364" width="8.421" height="8.421" stroke-width="0" fill="#FFFFFF"/><rect x="154.917" y="206.944" width="8.421" height="8.421" stroke-width="0" fill="#FFFFFF"/><rect x="154.917" y="198.523" width="8.421" height="8.421" stroke-width="0" fill="#FFFFFF"/><rect x="154.917" y="190.102" width="8.421" height="8.421" stroke-width="0" fill="#FFFFFF"/><rect x="154.917" y="147.995" width="8.421" height="8.424" stroke-width="0" fill="#063773"/><rect x="146.493" y="282.733" width="8.424" height="8.421" stroke-width="0" fill="#063773"/><rect x="146.493" y="274.312" width="8.424" height="8.421" stroke-width="0" fill="#FFEAD7"/><rect x="146.493" y="265.892" width="8.424" height="8.421" stroke-width="0" fill="#FFEAD7"/><rect x="146.493" y="257.471" width="8.424" height="8.421" stroke-width="0" fill="#FFEAD7"/><rect x="146.493" y="249.05" width="8.424" height="8.421" stroke-width="0" fill="#F4C59F"/><rect x="146.493" y="240.63" width="8.424" height="8.421" stroke-width="0" fill="#063773"/><rect x="146.493" y="232.206" width="8.424" height="8.424" stroke-width="0" fill="#FFFFFF"/><rect x="146.493" y="223.785" width="8.424" height="8.421" stroke-width="0" fill="#FFFFFF"/><rect x="146.493" y="215.364" width="8.424" height="8.421" stroke-width="0" fill="#FFFFFF"/><rect x="146.493" y="206.944" width="8.424" height="8.421" stroke-width="0" fill="#FFFFFF"/><rect x="146.493" y="198.523" width="8.424" height="8.421" stroke-width="0" fill="#FFFFFF"/><rect x="146.493" y="190.102" width="8.424" height="8.421" stroke-width="0" fill="#FFFFFF"/><rect x="146.493" y="147.995" width="8.424" height="8.424" stroke-width="0" fill="#063773"/><rect x="138.072" y="282.733" width="8.421" height="8.421" stroke-width="0" fill="#063773"/><rect x="138.072" y="274.312" width="8.421" height="8.421" stroke-width="0" fill="#FFEAD7"/><rect x="138.072" y="265.892" width="8.421" height="8.421" stroke-width="0" fill="#FFEAD7"/><rect x="138.072" y="257.471" width="8.421" height="8.421" stroke-width="0" fill="#063773"/><rect x="138.072" y="249.05" width="8.421" height="8.421" stroke-width="0" fill="#063773"/><rect x="138.072" y="240.63" width="8.421" height="8.421" stroke-width="0" fill="#063773"/><rect x="138.072" y="223.785" width="8.421" height="8.421" stroke-width="0" fill="#FFFFFF"/><rect x="138.072" y="215.364" width="8.421" height="8.421" stroke-width="0" fill="#FFFFFF"/><rect x="138.072" y="206.944" width="8.421" height="8.421" stroke-width="0" fill="#FFFFFF"/><rect x="138.072" y="198.523" width="8.421" height="8.421" stroke-width="0" fill="#FFFFFF"/><rect x="138.072" y="156.419" width="8.421" height="8.421" stroke-width="0" fill="#FFFFFF"/><rect x="138.072" y="147.995" width="8.421" height="8.424" stroke-width="0" fill="#063773"/><rect x="129.651" y="282.733" width="8.421" height="8.421" stroke-width="0" fill="#063773"/><rect x="129.651" y="274.312" width="8.421" height="8.421" stroke-width="0" fill="#FFEAD7"/><rect x="129.651" y="265.892" width="8.421" height="8.421" stroke-width="0" fill="#FFEAD7"/><rect x="129.651" y="257.471" width="8.421" height="8.421" stroke-width="0" fill="#FFEAD7"/><rect x="129.651" y="249.05" width="8.421" height="8.421" stroke-width="0" fill="#F4C59F"/><rect x="129.651" y="240.63" width="8.421" height="8.421" stroke-width="0" fill="#063773"/><rect x="129.651" y="215.364" width="8.421" height="8.421" stroke-width="0" fill="#FFFFFF"/><rect x="129.651" y="206.944" width="8.421" height="8.421" stroke-width="0" fill="#FFFFFF"/><rect x="129.651" y="164.84" width="8.421" height="8.421" stroke-width="0" fill="#FFFFFF"/><rect x="129.651" y="156.419" width="8.421" height="8.421" stroke-width="0" fill="#FFFFFF"/><rect x="129.651" y="147.995" width="8.421" height="8.424" stroke-width="0" fill="#063773"/><rect x="121.231" y="282.733" width="8.421" height="8.421" stroke-width="0" fill="#063773"/><path d="M230.56 198.523 230.56 206.943 230.56 215.364 230.56 223.785 230.56 232.206 230.56 240.63 230.56 249.05 238.984 249.05 238.984 240.63 238.984 232.206 238.984 223.785 238.984 215.364 238.984 206.943 238.984 198.523 230.56 198.523Z" stroke-width="0" fill="#063773"/><path d="M230.56 181.681 230.56 173.261 222.139 173.261 222.139 181.681 222.139 190.102 222.139 198.523 230.56 198.523 230.56 190.102 230.56 181.681Z" stroke-width="0" fill="#063773"/><path d="M213.718 249.05 213.718 257.471 213.718 265.892 213.718 274.312 222.139 274.312 222.139 265.892 222.139 257.471 230.56 257.471 230.56 249.05 222.139 249.05 213.718 249.05Z" stroke-width="0" fill="#063773"/><rect x="213.718" y="164.84" width="8.421" height="8.421" stroke-width="0" fill="#063773"/><rect x="205.298" y="274.312" width="8.421" height="8.421" stroke-width="0" fill="#063773"/><path d="M205.298 156.419 196.877 156.419 196.877 164.84 205.298 164.84 213.718 164.84 213.718 156.419 205.298 156.419Z" stroke-width="0" fill="#063773"/><path d="M196.877 290.634 188.456 290.634 180.035 290.634 171.615 290.634 163.194 290.634 154.77 290.634 146.35 290.634 137.929 290.634 129.651 290.634 129.508 290.634 121.231 290.634 121.231 299.055 129.508 299.055 129.651 299.055 137.929 299.055 146.35 299.055 154.77 299.055 163.194 299.055 171.615 299.055 180.035 299.055 188.456 299.055 196.877 299.055 196.877 291.154 205.298 291.154 205.298 282.733 196.877 282.733 196.877 290.634Z" stroke-width="0" fill="#063773"/><rect x="188.456" y="147.995" width="8.421" height="8.424" stroke-width="0" fill="#063773"/><rect x="121.231" y="274.312" width="8.421" height="8.421" stroke-width="0" fill="#F4C59F"/><rect x="121.231" y="265.892" width="8.421" height="8.421" stroke-width="0" fill="#FFEAD7"/><rect x="121.231" y="257.471" width="8.421" height="8.421" stroke-width="0" fill="#FFEAD7"/><rect x="121.231" y="249.05" width="8.421" height="8.421" stroke-width="0" fill="#F4C59F"/><rect x="121.231" y="240.63" width="8.421" height="8.421" stroke-width="0" fill="#063773"/><rect x="121.231" y="164.84" width="8.421" height="8.421" stroke-width="0" fill="#FFFFFF"/><rect x="121.231" y="156.419" width="8.421" height="8.421" stroke-width="0" fill="#063773"/><rect x="112.81" y="274.312" width="8.421" height="8.421" stroke-width="0" fill="#063773"/><rect x="112.81" y="265.892" width="8.421" height="8.421" stroke-width="0" fill="#F4C59F"/><rect x="112.81" y="257.471" width="8.421" height="8.421" stroke-width="0" fill="#F4C59F"/><rect x="112.81" y="249.05" width="8.421" height="8.421" stroke-width="0" fill="#063773"/><rect x="112.81" y="215.364" width="8.421" height="8.421" stroke-width="0" fill="#FFFFFF"/><rect x="112.81" y="206.944" width="8.421" height="8.421" stroke-width="0" fill="#FFFFFF"/><rect x="112.81" y="198.523" width="8.421" height="8.421" stroke-width="0" fill="#FFFFFF"/><rect x="112.81" y="190.102" width="8.421" height="8.421" stroke-width="0" fill="#FFFFFF"/><rect x="197.02" y="223.785" width="8.421" height="8.421" stroke-width="0" fill="#FFBB1C"/><rect x="197.02" y="181.681" width="8.421" height="8.421" stroke-width="0" fill="#FFBB1C"/><rect x="197.02" y="173.261" width="8.421" height="8.421" stroke-width="0" fill="#FFBB1C"/><rect x="188.6" y="223.785" width="8.421" height="8.421" stroke-width="0" fill="#FFBB1C"/><rect x="188.6" y="215.364" width="8.421" height="8.421" stroke-width="0" fill="#FFBB1C"/><rect x="188.6" y="206.944" width="8.421" height="8.421" stroke-width="0" fill="#FFBB1C"/><rect x="188.6" y="198.523" width="8.421" height="8.421" stroke-width="0" fill="#FFBB1C"/><rect x="188.6" y="190.102" width="8.421" height="8.421" stroke-width="0" fill="#FFBB1C"/><rect x="188.6" y="181.681" width="8.421" height="8.421" stroke-width="0" fill="#FFBB1C"/><rect x="188.6" y="173.261" width="8.421" height="8.421" stroke-width="0" fill="#FFBB1C"/><rect x="180.179" y="223.785" width="8.421" height="8.421" stroke-width="0" fill="#FFBB1C"/><rect x="180.179" y="198.523" width="8.421" height="8.421" stroke-width="0" fill="#FFBB1C"/><rect x="180.179" y="190.102" width="8.421" height="8.421" stroke-width="0" fill="#FFBB1C"/><rect x="180.179" y="181.681" width="8.421" height="8.421" stroke-width="0" fill="#FFBB1C"/><rect x="180.179" y="173.261" width="8.421" height="8.421" stroke-width="0" fill="#FFBB1C"/><rect x="171.758" y="190.102" width="8.421" height="8.421" stroke-width="0" fill="#FFBB1C"/><rect x="171.758" y="181.681" width="8.421" height="8.421" stroke-width="0" fill="#FFBB1C"/><rect x="171.758" y="173.261" width="8.421" height="8.421" stroke-width="0" fill="#FFBB1C"/><rect x="171.758" y="164.84" width="8.421" height="8.421" stroke-width="0" fill="#FFBB1C"/><rect x="163.338" y="181.681" width="8.421" height="8.421" stroke-width="0" fill="#FFBB1C"/><rect x="163.338" y="173.261" width="8.421" height="8.421" stroke-width="0" fill="#FFBB1C"/><rect x="163.338" y="164.84" width="8.421" height="8.421" stroke-width="0" fill="#FFBB1C"/><rect x="163.338" y="156.419" width="8.421" height="8.421" stroke-width="0" fill="#FFBB1C"/><rect x="154.917" y="181.681" width="8.421" height="8.421" stroke-width="0" fill="#FFBB1C"/><rect x="154.917" y="173.261" width="8.421" height="8.421" stroke-width="0" fill="#FFBB1C"/><rect x="154.917" y="164.84" width="8.421" height="8.421" stroke-width="0" fill="#FFBB1C"/><rect x="154.917" y="156.419" width="8.421" height="8.421" stroke-width="0" fill="#FFBB1C"/><rect x="146.493" y="181.681" width="8.424" height="8.421" stroke-width="0" fill="#FFBB1C"/><rect x="146.493" y="173.261" width="8.424" height="8.421" stroke-width="0" fill="#FFBB1C"/><rect x="146.493" y="164.84" width="8.424" height="8.421" stroke-width="0" fill="#FFBB1C"/><rect x="146.493" y="156.419" width="8.424" height="8.421" stroke-width="0" fill="#FFBB1C"/><rect x="138.072" y="190.102" width="8.421" height="8.421" stroke-width="0" fill="#FFBB1C"/><rect x="138.072" y="181.681" width="8.421" height="8.421" stroke-width="0" fill="#FFBB1C"/><rect x="138.072" y="173.261" width="8.421" height="8.421" stroke-width="0" fill="#FFBB1C"/><rect x="138.072" y="164.84" width="8.421" height="8.421" stroke-width="0" fill="#FFBB1C"/><rect x="129.651" y="223.785" width="8.421" height="8.421" stroke-width="0" fill="#FFBB1C"/><rect x="129.651" y="198.523" width="8.421" height="8.421" stroke-width="0" fill="#FFBB1C"/><rect x="129.651" y="190.102" width="8.421" height="8.421" stroke-width="0" fill="#FFBB1C"/><rect x="129.651" y="181.681" width="8.421" height="8.421" stroke-width="0" fill="#FFBB1C"/><rect x="129.651" y="173.261" width="8.421" height="8.421" stroke-width="0" fill="#FFBB1C"/><rect x="121.231" y="223.785" width="8.421" height="8.421" stroke-width="0" fill="#FFBB1C"/><rect x="121.231" y="215.364" width="8.421" height="8.421" stroke-width="0" fill="#FFBB1C"/><rect x="121.231" y="206.944" width="8.421" height="8.421" stroke-width="0" fill="#FFBB1C"/><rect x="121.231" y="198.523" width="8.421" height="8.421" stroke-width="0" fill="#FFBB1C"/><rect x="121.231" y="190.102" width="8.421" height="8.421" stroke-width="0" fill="#FFBB1C"/><rect x="121.231" y="181.681" width="8.421" height="8.421" stroke-width="0" fill="#FFBB1C"/><rect x="121.231" y="173.261" width="8.421" height="8.421" stroke-width="0" fill="#FFBB1C"/><rect x="112.81" y="223.785" width="8.421" height="8.421" stroke-width="0" fill="#FFBB1C"/><rect x="112.81" y="181.681" width="8.421" height="8.421" stroke-width="0" fill="#FFBB1C"/><rect x="112.81" y="173.261" width="8.421" height="8.421" stroke-width="0" fill="#FFBB1C"/><rect x="112.81" y="164.84" width="8.421" height="8.421" stroke-width="0" fill="#FFFFFF"/><rect x="112.81" y="156.419" width="8.421" height="8.421" stroke-width="0" fill="#063773"/><rect x="104.389" y="265.892" width="8.421" height="8.421" stroke-width="0" fill="#063773"/><rect x="104.389" y="257.471" width="8.421" height="8.421" stroke-width="0" fill="#063773"/><rect x="104.389" y="249.05" width="8.421" height="8.421" stroke-width="0" fill="#063773"/><rect x="104.389" y="223.785" width="8.421" height="8.421" stroke-width="0" fill="#FFFFFF"/><rect x="104.389" y="215.364" width="8.421" height="8.421" stroke-width="0" fill="#FFFFFF"/><rect x="104.389" y="206.944" width="8.421" height="8.421" stroke-width="0" fill="#FFFFFF"/><rect x="104.389" y="198.523" width="8.421" height="8.421" stroke-width="0" fill="#FFFFFF"/><rect x="104.389" y="190.102" width="8.421" height="8.421" stroke-width="0" fill="#FFFFFF"/><rect x="104.389" y="164.84" width="8.421" height="8.421" stroke-width="0" fill="#063773"/><rect x="95.969" y="249.05" width="8.421" height="8.421" stroke-width="0" fill="#063773"/><rect x="213.862" y="240.63" width="8.421" height="8.421" stroke-width="0" fill="#DB8E1D"/><rect x="213.862" y="232.206" width="8.421" height="8.424" stroke-width="0" fill="#DB8E1D"/><rect x="205.441" y="240.63" width="8.421" height="8.421" stroke-width="0" fill="#DB8E1D"/><rect x="205.441" y="232.206" width="8.421" height="8.424" stroke-width="0" fill="#DB8E1D"/><rect x="205.441" y="181.681" width="8.421" height="8.421" stroke-width="0" fill="#DB8E1D"/><rect x="205.441" y="173.261" width="8.421" height="8.421" stroke-width="0" fill="#DB8E1D"/><rect x="197.02" y="240.63" width="8.421" height="8.421" stroke-width="0" fill="#DB8E1D"/><rect x="197.02" y="232.206" width="8.421" height="8.424" stroke-width="0" fill="#DB8E1D"/><rect x="188.6" y="232.206" width="8.421" height="8.424" stroke-width="0" fill="#DB8E1D"/><rect x="180.179" y="232.206" width="8.421" height="8.424" stroke-width="0" fill="#DB8E1D"/><rect x="171.758" y="232.206" width="8.421" height="8.424" stroke-width="0" fill="#DB8E1D"/><rect x="138.072" y="232.206" width="8.421" height="8.424" stroke-width="0" fill="#DB8E1D"/><rect x="129.651" y="232.206" width="8.421" height="8.424" stroke-width="0" fill="#DB8E1D"/><rect x="121.231" y="232.206" width="8.421" height="8.424" stroke-width="0" fill="#DB8E1D"/><rect x="112.81" y="240.63" width="8.421" height="8.421" stroke-width="0" fill="#DB8E1D"/><rect x="112.81" y="232.206" width="8.421" height="8.424" stroke-width="0" fill="#DB8E1D"/><rect x="104.389" y="240.63" width="8.421" height="8.421" stroke-width="0" fill="#DB8E1D"/><rect x="104.389" y="232.206" width="8.421" height="8.424" stroke-width="0" fill="#DB8E1D"/><rect x="104.389" y="181.681" width="8.421" height="8.421" stroke-width="0" fill="#DB8E1D"/><rect x="104.389" y="173.261" width="8.421" height="8.421" stroke-width="0" fill="#DB8E1D"/><rect x="95.969" y="240.63" width="8.421" height="8.421" stroke-width="0" fill="#DB8E1D"/><rect x="95.969" y="232.206" width="8.421" height="8.424" stroke-width="0" fill="#DB8E1D"/><rect x="95.969" y="223.785" width="8.421" height="8.421" stroke-width="0" fill="#FFFFFF"/><rect x="95.969" y="215.364" width="8.421" height="8.421" stroke-width="0" fill="#FFFFFF"/><rect x="95.969" y="206.944" width="8.421" height="8.421" stroke-width="0" fill="#FFFFFF"/><rect x="95.969" y="198.523" width="8.421" height="8.421" stroke-width="0" fill="#FFFFFF"/><rect x="95.969" y="190.102" width="8.421" height="8.421" stroke-width="0" fill="#063773"/><rect x="95.969" y="181.681" width="8.421" height="8.421" stroke-width="0" fill="#063773"/><rect x="95.969" y="173.261" width="8.421" height="8.421" stroke-width="0" fill="#063773"/><rect x="87.548" y="240.63" width="8.421" height="8.421" stroke-width="0" fill="#063773"/><rect x="87.548" y="232.206" width="8.421" height="8.424" stroke-width="0" fill="#063773"/><rect x="87.548" y="223.785" width="8.421" height="8.421" stroke-width="0" fill="#063773"/><rect x="87.548" y="215.364" width="8.421" height="8.421" stroke-width="0" fill="#063773"/><rect x="87.548" y="206.944" width="8.421" height="8.421" stroke-width="0" fill="#063773"/><rect x="87.548" y="198.523" width="8.421" height="8.421" stroke-width="0" fill="#063773"/><rect x="87.548" y="190.102" width="8.421" height="8.421" stroke-width="0" fill="#063773"/><path d="M390.555 262.596 294.972 262.596 294.972 243.479 275.855 243.479 275.855 167.012 333.205 167.012 333.205 243.479 352.322 243.479 352.322 167.012 409.672 167.012 409.672 243.479 390.555 243.479 390.555 262.596Z" stroke-width="0" fill="#FFBB1C"/><path d="M486.139 262.596 428.789 262.596 428.789 167.013 543.489 167.013 543.489 186.13 562.606 186.13 562.606 224.363 543.489 224.363 543.489 243.48 486.139 243.48 486.139 262.597ZM505.255 224.363 505.255 186.13 486.138 186.13 486.138 224.363 505.255 224.363Z" stroke-width="0" fill="#FFBB1C"/><path d="M146.903 88.985 94.138 88.985 94.138 19.086 75.082 19.086 75.082 88.985 70.675 88.985 70.675 12.756 13.503 12.756 13.503 108.041 146.903 108.041 146.903 88.985Z" stroke-width="0" fill="#063773"/><path d="M413.704 108.041 413.704 88.984 432.761 88.984 432.761 69.926 451.819 69.926 451.819 12.756 394.647 12.756 394.647 19.086 379.998 19.086 379.998 69.927 375.591 69.927 375.591 12.756 318.419 12.756 318.419 19.086 303.77 19.086 303.77 38.143 227.541 38.143 227.541 50.871 223.134 50.871 223.134 31.813 299.363 31.813 299.363 12.756 165.963 12.756 165.963 95.315 151.313 95.315 151.313 114.372 17.91 114.372 17.91 133.43 322.826 133.43 322.826 95.316 341.883 95.316 341.883 88.986 356.532 88.986 356.532 95.316 341.883 95.316 341.883 114.373 360.94 114.373 360.94 108.043 413.705 108.043ZM223.133 69.927 280.304 69.927 280.304 57.2 284.711 57.2 284.711 76.257 227.54 76.257 227.54 88.985 223.133 88.985 223.133 69.927ZM322.825 76.257 322.825 95.315 303.768 95.315 303.768 114.372 170.368 114.372 170.368 108.042 299.361 108.042 299.361 95.315 303.768 95.315 303.768 57.201 318.417 57.201 318.417 69.928 337.475 69.928 337.475 76.258 322.825 76.258Z" stroke-width="0" fill="#063773"/><path d="M761.14 95.315 761.14 114.372 627.741 114.372 627.741 108.042 756.733 108.042 756.733 88.985 703.968 88.985 703.968 19.086 684.911 19.086 684.911 88.984 680.504 88.984 680.504 12.756 623.332 12.756 623.332 19.086 608.683 19.086 608.683 38.143 532.454 38.143 532.454 50.871 528.047 50.871 528.047 31.813 604.276 31.813 604.276 12.756 470.876 12.756 470.876 19.086 456.226 19.086 456.226 76.257 437.168 76.257 437.168 95.315 418.111 95.315 418.111 114.372 360.939 114.372 360.939 133.43 437.168 133.43 437.168 114.372 456.226 114.372 456.226 95.315 470.876 95.315 470.876 108.042 604.276 108.042 604.276 95.315 608.683 95.315 608.683 57.201 623.332 57.201 623.332 95.315 608.683 95.315 608.683 114.372 475.283 114.372 475.283 133.43 780.198 133.43 780.198 95.316 761.14 95.316ZM528.048 69.927 585.219 69.927 585.219 57.2 589.626 57.2 589.626 76.257 532.455 76.257 532.455 88.985 528.048 88.985 528.048 69.927Z" stroke-width="0" fill="#063773"/><path d="M75.068 96.049 151.297 96.049 151.297 115.106 17.896 115.106 17.896 19.821 75.068 19.821 75.068 96.05Z" stroke-width="0" fill="#FFBB1C"/><path d="M227.526 96.049 303.755 96.049 303.755 115.106 170.355 115.106 170.355 19.821 303.755 19.821 303.755 38.878 227.526 38.878 227.526 57.936 284.697 57.936 284.697 76.993 227.526 76.993 227.526 96.051Z" stroke-width="0" fill="#FFBB1C"/><path d="M418.097 115.106 360.925 115.106 360.925 96.049 341.868 96.049 341.868 76.991 322.81 76.991 322.81 19.821 379.982 19.821 379.982 76.992 399.039 76.992 399.039 19.821 456.211 19.821 456.211 76.992 437.153 76.992 437.153 96.05 418.096 96.05 418.096 115.107Z" stroke-width="0" fill="#FFBB1C"/><path d="M532.441 96.049 608.67 96.049 608.67 115.106 475.27 115.106 475.27 19.821 608.67 19.821 608.67 38.878 532.441 38.878 532.441 57.936 589.612 57.936 589.612 76.993 532.441 76.993 532.441 96.051Z" stroke-width="0" fill="#FFBB1C"/><path d="M684.898 96.049 761.127 96.049 761.127 115.106 627.727 115.106 627.727 19.821 684.899 19.821 684.899 96.05Z" stroke-width="0" fill="#FFBB1C"/></svg>