<svg xmlns="http://www.w3.org/2000/svg" xml:space="preserve" version="1.0" viewBox="0 0 100 100"><svg xmlns="http://www.w3.org/2000/svg" xmlns:xlink="http://www.w3.org/1999/xlink" width="100" height="100" shape-rendering="crispEdges" viewBox="0 0 2000 2000"><path fill="#fff" d="M0 0h2000v2000H0z"/><path d="M668 158h51v51h-51zM770 158h51v51h-51zM1127 158h51v51h-51zM1229 158h51v51h-51zM1331 158h51v51h-51zM566 209h51v51h-51zM668 209h51v51h-51zM821 209h51v51h-51zM872 209h51v51h-51zM923 209h51v51h-51zM974 209h51v51h-51zM1025 209h51v51h-51zM1127 209h51v51h-51zM1280 209h51v51h-51zM770 260h51v51h-51zM974 260h51v51h-51zM1076 260h51v51h-51zM1127 260h51v51h-51zM1178 260h51v51h-51zM1331 260h51v51h-51zM566 311h51v51h-51zM617 311h51v51h-51zM668 311h51v51h-51zM770 311h51v51h-51zM923 311h51v51h-51zM1025 311h51v51h-51zM1076 311h51v51h-51zM1178 311h51v51h-51zM1280 311h51v51h-51zM1382 311h51v51h-51zM617 362h51v51h-51zM872 362h51v51h-51zM923 362h51v51h-51zM974 362h51v51h-51zM1127 362h51v51h-51zM1229 362h51v51h-51zM1280 362h51v51h-51zM1331 362h51v51h-51zM566 413h51v51h-51zM617 413h51v51h-51zM719 413h51v51h-51zM770 413h51v51h-51zM821 413h51v51h-51zM872 413h51v51h-51zM923 413h51v51h-51zM974 413h51v51h-51zM1025 413h51v51h-51zM1280 413h51v51h-51zM1331 413h51v51h-51zM1382 413h51v51h-51zM566 464h51v51h-51zM668 464h51v51h-51zM770 464h51v51h-51zM872 464h51v51h-51zM974 464h51v51h-51zM1076 464h51v51h-51zM1178 464h51v51h-51zM1280 464h51v51h-51zM1382 464h51v51h-51zM617 515h51v51h-51zM668 515h51v51h-51zM719 515h51v51h-51zM821 515h51v51h-51zM974 515h51v51h-51zM1025 515h51v51h-51zM1076 515h51v51h-51zM1127 515h51v51h-51zM1178 515h51v51h-51zM1331 515h51v51h-51zM158 566h51v51h-51zM209 566h51v51h-51zM260 566h51v51h-51zM311 566h51v51h-51zM362 566h51v51h-51zM464 566h51v51h-51zM515 566h51v51h-51zM566 566h51v51h-51zM617 566h51v51h-51zM719 566h51v51h-51zM821 566h51v51h-51zM872 566h51v51h-51zM923 566h51v51h-51zM974 566h51v51h-51zM1025 566h51v51h-51zM1178 566h51v51h-51zM1280 566h51v51h-51zM1433 566h51v51h-51zM1535 566h51v51h-51zM1637 566h51v51h-51zM1739 566h51v51h-51zM158 617h51v51h-51zM668 617h51v51h-51zM770 617h51v51h-51zM923 617h51v51h-51zM974 617h51v51h-51zM1178 617h51v51h-51zM1229 617h51v51h-51zM1382 617h51v51h-51zM1484 617h51v51h-51zM1535 617h51v51h-51zM1637 617h51v51h-51zM1688 617h51v51h-51zM158 668h51v51h-51zM311 668h51v51h-51zM362 668h51v51h-51zM413 668h51v51h-51zM464 668h51v51h-51zM515 668h51v51h-51zM668 668h51v51h-51zM821 668h51v51h-51zM872 668h51v51h-51zM1025 668h51v51h-51zM1280 668h51v51h-51zM1382 668h51v51h-51zM1535 668h51v51h-51zM1586 668h51v51h-51zM1637 668h51v51h-51zM1739 668h51v51h-51zM260 719h51v51h-51zM362 719h51v51h-51zM515 719h51v51h-51zM770 719h51v51h-51zM872 719h51v51h-51zM1025 719h51v51h-51zM1076 719h51v51h-51zM1127 719h51v51h-51zM1178 719h51v51h-51zM1229 719h51v51h-51zM1331 719h51v51h-51zM1484 719h51v51h-51zM1688 719h51v51h-51zM1739 719h51v51h-51zM1790 719h51v51h-51zM209 770h51v51h-51zM260 770h51v51h-51zM311 770h51v51h-51zM464 770h51v51h-51zM566 770h51v51h-51zM617 770h51v51h-51zM668 770h51v51h-51zM770 770h51v51h-51zM821 770h51v51h-51zM923 770h51v51h-51zM974 770h51v51h-51zM1025 770h51v51h-51zM1229 770h51v51h-51zM1280 770h51v51h-51zM1382 770h51v51h-51zM1433 770h51v51h-51zM1484 770h51v51h-51zM1688 770h51v51h-51zM1739 770h51v51h-51zM617 821h51v51h-51zM872 821h51v51h-51zM974 821h51v51h-51zM1076 821h51v51h-51zM1229 821h51v51h-51zM1331 821h51v51h-51zM1484 821h51v51h-51zM1637 821h51v51h-51zM1688 821h51v51h-51zM158 872h51v51h-51zM209 872h51v51h-51zM362 872h51v51h-51zM413 872h51v51h-51zM464 872h51v51h-51zM617 872h51v51h-51zM668 872h51v51h-51zM719 872h51v51h-51zM770 872h51v51h-51zM821 872h51v51h-51zM872 872h51v51h-51zM923 872h51v51h-51zM974 872h51v51h-51zM1025 872h51v51h-51zM1127 872h51v51h-51zM1280 872h51v51h-51zM1382 872h51v51h-51zM1433 872h51v51h-51zM1586 872h51v51h-51zM1637 872h51v51h-51zM1739 872h51v51h-51zM158 923h51v51h-51zM209 923h51v51h-51zM260 923h51v51h-51zM311 923h51v51h-51zM362 923h51v51h-51zM413 923h51v51h-51zM515 923h51v51h-51zM668 923h51v51h-51zM719 923h51v51h-51zM821 923h51v51h-51zM974 923h51v51h-51zM1076 923h51v51h-51zM1127 923h51v51h-51zM1178 923h51v51h-51zM1229 923h51v51h-51zM1331 923h51v51h-51zM1484 923h51v51h-51zM1688 923h51v51h-51zM1739 923h51v51h-51zM1790 923h51v51h-51zM158 974h51v51h-51zM260 974h51v51h-51zM311 974h51v51h-51zM362 974h51v51h-51zM464 974h51v51h-51zM515 974h51v51h-51zM617 974h51v51h-51zM668 974h51v51h-51zM719 974h51v51h-51zM923 974h51v51h-51zM974 974h51v51h-51zM1025 974h51v51h-51zM1178 974h51v51h-51zM1229 974h51v51h-51zM1280 974h51v51h-51zM1535 974h51v51h-51zM1637 974h51v51h-51zM1739 974h51v51h-51zM209 1025h51v51h-51zM260 1025h51v51h-51zM413 1025h51v51h-51zM515 1025h51v51h-51zM566 1025h51v51h-51zM617 1025h51v51h-51zM770 1025h51v51h-51zM872 1025h51v51h-51zM923 1025h51v51h-51zM974 1025h51v51h-51zM1076 1025h51v51h-51zM1127 1025h51v51h-51zM1229 1025h51v51h-51zM1280 1025h51v51h-51zM1433 1025h51v51h-51zM1484 1025h51v51h-51zM1535 1025h51v51h-51zM1586 1025h51v51h-51zM1688 1025h51v51h-51zM209 1076h51v51h-51zM260 1076h51v51h-51zM464 1076h51v51h-51zM821 1076h51v51h-51zM872 1076h51v51h-51zM923 1076h51v51h-51zM1025 1076h51v51h-51zM1076 1076h51v51h-51zM1280 1076h51v51h-51zM1382 1076h51v51h-51zM1433 1076h51v51h-51zM1535 1076h51v51h-51zM1586 1076h51v51h-51zM1637 1076h51v51h-51zM1790 1076h51v51h-51zM566 1127h51v51h-51zM617 1127h51v51h-51zM668 1127h51v51h-51zM770 1127h51v51h-51zM872 1127h51v51h-51zM974 1127h51v51h-51zM1127 1127h51v51h-51zM1178 1127h51v51h-51zM1229 1127h51v51h-51zM1280 1127h51v51h-51zM1331 1127h51v51h-51zM1484 1127h51v51h-51zM1790 1127h51v51h-51zM158 1178h51v51h-51zM311 1178h51v51h-51zM464 1178h51v51h-51zM566 1178h51v51h-51zM617 1178h51v51h-51zM770 1178h51v51h-51zM872 1178h51v51h-51zM923 1178h51v51h-51zM974 1178h51v51h-51zM1025 1178h51v51h-51zM1076 1178h51v51h-51zM1178 1178h51v51h-51zM1382 1178h51v51h-51zM1433 1178h51v51h-51zM1484 1178h51v51h-51zM1535 1178h51v51h-51zM1739 1178h51v51h-51zM158 1229h51v51h-51zM260 1229h51v51h-51zM311 1229h51v51h-51zM617 1229h51v51h-51zM668 1229h51v51h-51zM923 1229h51v51h-51zM1076 1229h51v51h-51zM1127 1229h51v51h-51zM1178 1229h51v51h-51zM1229 1229h51v51h-51zM1433 1229h51v51h-51zM1484 1229h51v51h-51zM1688 1229h51v51h-51zM1739 1229h51v51h-51zM1790 1229h51v51h-51zM158 1280h51v51h-51zM362 1280h51v51h-51zM464 1280h51v51h-51zM617 1280h51v51h-51zM668 1280h51v51h-51zM719 1280h51v51h-51zM770 1280h51v51h-51zM821 1280h51v51h-51zM872 1280h51v51h-51zM1025 1280h51v51h-51zM1076 1280h51v51h-51zM1127 1280h51v51h-51zM1280 1280h51v51h-51zM1433 1280h51v51h-51zM1586 1280h51v51h-51zM158 1331h51v51h-51zM311 1331h51v51h-51zM413 1331h51v51h-51zM566 1331h51v51h-51zM719 1331h51v51h-51zM821 1331h51v51h-51zM974 1331h51v51h-51zM1127 1331h51v51h-51zM1331 1331h51v51h-51zM1484 1331h51v51h-51zM1637 1331h51v51h-51zM158 1382h51v51h-51zM311 1382h51v51h-51zM362 1382h51v51h-51zM464 1382h51v51h-51zM566 1382h51v51h-51zM617 1382h51v51h-51zM719 1382h51v51h-51zM770 1382h51v51h-51zM923 1382h51v51h-51zM1076 1382h51v51h-51zM1178 1382h51v51h-51zM1382 1382h51v51h-51zM1433 1382h51v51h-51zM1484 1382h51v51h-51zM1535 1382h51v51h-51zM1586 1382h51v51h-51zM1637 1382h51v51h-51zM1739 1382h51v51h-51zM566 1433h51v51h-51zM770 1433h51v51h-51zM872 1433h51v51h-51zM974 1433h51v51h-51zM1076 1433h51v51h-51zM1178 1433h51v51h-51zM1229 1433h51v51h-51zM1280 1433h51v51h-51zM1331 1433h51v51h-51zM1382 1433h51v51h-51zM1586 1433h51v51h-51zM1688 1433h51v51h-51zM566 1484h51v51h-51zM617 1484h51v51h-51zM770 1484h51v51h-51zM821 1484h51v51h-51zM872 1484h51v51h-51zM923 1484h51v51h-51zM974 1484h51v51h-51zM1025 1484h51v51h-51zM1076 1484h51v51h-51zM1280 1484h51v51h-51zM1331 1484h51v51h-51zM1382 1484h51v51h-51zM1484 1484h51v51h-51zM1586 1484h51v51h-51zM1739 1484h51v51h-51zM668 1535h51v51h-51zM770 1535h51v51h-51zM821 1535h51v51h-51zM974 1535h51v51h-51zM1127 1535h51v51h-51zM1178 1535h51v51h-51zM1229 1535h51v51h-51zM1280 1535h51v51h-51zM1382 1535h51v51h-51zM1586 1535h51v51h-51zM1637 1535h51v51h-51zM1790 1535h51v51h-51zM566 1586h51v51h-51zM617 1586h51v51h-51zM821 1586h51v51h-51zM872 1586h51v51h-51zM923 1586h51v51h-51zM974 1586h51v51h-51zM1025 1586h51v51h-51zM1076 1586h51v51h-51zM1382 1586h51v51h-51zM1433 1586h51v51h-51zM1484 1586h51v51h-51zM1535 1586h51v51h-51zM1586 1586h51v51h-51zM1637 1586h51v51h-51zM1790 1586h51v51h-51zM566 1637h51v51h-51zM617 1637h51v51h-51zM668 1637h51v51h-51zM719 1637h51v51h-51zM770 1637h51v51h-51zM872 1637h51v51h-51zM923 1637h51v51h-51zM974 1637h51v51h-51zM1076 1637h51v51h-51zM1127 1637h51v51h-51zM1178 1637h51v51h-51zM1229 1637h51v51h-51zM1331 1637h51v51h-51zM1433 1637h51v51h-51zM1484 1637h51v51h-51zM1637 1637h51v51h-51zM1688 1637h51v51h-51zM1739 1637h51v51h-51zM566 1688h51v51h-51zM821 1688h51v51h-51zM872 1688h51v51h-51zM1025 1688h51v51h-51zM1076 1688h51v51h-51zM1127 1688h51v51h-51zM1280 1688h51v51h-51zM1331 1688h51v51h-51zM1382 1688h51v51h-51zM1433 1688h51v51h-51zM1535 1688h51v51h-51zM1586 1688h51v51h-51zM566 1739h51v51h-51zM668 1739h51v51h-51zM719 1739h51v51h-51zM821 1739h51v51h-51zM1127 1739h51v51h-51zM1178 1739h51v51h-51zM1331 1739h51v51h-51zM1535 1739h51v51h-51zM1586 1739h51v51h-51zM1637 1739h51v51h-51zM1688 1739h51v51h-51zM1739 1739h51v51h-51zM1790 1739h51v51h-51zM566 1790h51v51h-51zM617 1790h51v51h-51zM668 1790h51v51h-51zM770 1790h51v51h-51zM821 1790h51v51h-51zM872 1790h51v51h-51zM923 1790h51v51h-51zM974 1790h51v51h-51zM1178 1790h51v51h-51zM1280 1790h51v51h-51zM1331 1790h51v51h-51zM1484 1790h51v51h-51zM1637 1790h51v51h-51zM1739 1790h51v51h-51z"/><svg xml:space="preserve" width="357" height="357" x="158" y="158" shape-rendering="auto" viewBox="0 0 699.988 699.986"><path d="M600.99 0H1V699.986h699.988V0H600.99zm0 199.996v399.992H100.999V99.998H600.99v99.998z"/></svg><svg xml:space="preserve" width="357" height="357" x="158" y="158" shape-rendering="auto" version="1.0" viewBox="0 0 699.988 699.988"><path d="M399.994 199.997H199.998v299.994H499.99V199.997z"/></svg><svg xml:space="preserve" width="357" height="357" x="1484" y="158" shape-rendering="auto" viewBox="0 0 699.988 699.986"><path d="M600.99 0H1V699.986h699.988V0H600.99zm0 199.996v399.992H100.999V99.998H600.99v99.998z"/></svg><svg xml:space="preserve" width="357" height="357" x="1484" y="158" shape-rendering="auto" version="1.0" viewBox="0 0 699.988 699.988"><path d="M399.994 199.997H199.998v299.994H499.99V199.997z"/></svg><svg xml:space="preserve" width="357" height="357" x="158" y="1484" shape-rendering="auto" viewBox="0 0 699.988 699.986"><path d="M600.99 0H1V699.986h699.988V0H600.99zm0 199.996v399.992H100.999V99.998H600.99v99.998z"/></svg><svg xml:space="preserve" width="357" height="357" x="158" y="1484" shape-rendering="auto" version="1.0" viewBox="0 0 699.988 699.988"><path d="M399.994 199.997H199.998v299.994H499.99V199.997z"/></svg></svg></svg>